<svg width="23" height="22" viewBox="0 0 23 22" fill="none" xmlns="http://www.w3.org/2000/svg">
<path d="M19.4291 9.04643L16.1311 4.5411L17.7011 3.48953L20.9991 7.99487L19.4291 9.04643Z" fill="#FF1010"/>
<path d="M17.6239 11.3745L15.9749 9.12193L8.1246 14.3797L9.77358 16.6324L8.20357 17.684L3.80615 11.6768L5.37619 10.6253L7.02525 12.878L14.8755 7.62016L13.2265 5.36744L14.7965 4.31589L19.1939 10.323L17.6239 11.3745Z" fill="#FF1010"/>
<path d="M19.8999 6.49304L21.47 5.44148L20.3706 3.9397L18.8005 4.99125L19.8999 6.49304Z" fill="#FF1010"/>
<path d="M6.86884 17.4588L3.57077 12.9534L2.00073 14.005L5.2988 18.5104L6.86884 17.4588Z" fill="#FF1010"/>
<path d="M4.19955 17.0087L2.6295 18.0602L1.53015 16.5584L3.10019 15.5069L4.19955 17.0087Z" fill="#FF1010"/>
</svg>
