<svg width="60" height="61" viewBox="0 0 60 61" fill="none" xmlns="http://www.w3.org/2000/svg">
<g id="Frame">
<path id="Vector" d="M50.6847 25.1721L42.0812 12.8848L46.177 10.0169L54.7805 22.3042L50.6847 25.1721Z" fill="black"/>
<path id="Vector_2" d="M45.9753 31.5215L41.6735 25.378L21.1946 39.7175L25.4963 45.861L21.4006 48.729L9.92908 32.3458L14.0248 29.478L18.3267 35.6218L38.8055 21.2823L34.5038 15.1385L38.5995 12.2706L50.071 28.6538L45.9753 31.5215Z" fill="black"/>
<path id="Vector_3" d="M51.9127 18.2083L56.0085 15.3404L53.1405 11.2446L49.0447 14.1125L51.9127 18.2083Z" fill="black"/>
<path id="Vector_4" d="M17.9188 48.115L9.31517 35.8275L5.21942 38.6955L13.8231 50.9828L17.9188 48.115Z" fill="black"/>
<path id="Vector_5" d="M10.9552 46.8873L6.85945 49.755L3.99158 45.6593L8.08733 42.7915L10.9552 46.8873Z" fill="black"/>
</g>
</svg>
