<svg width="60" height="60" viewBox="0 0 60 60" fill="none" xmlns="http://www.w3.org/2000/svg">
<g id="Frame">
<g id="Cheat_day">
<path id="Vector" d="M45.9375 34.9322C45.2818 34.7994 44.6144 34.7327 43.9453 34.733C42.8714 34.73 41.8044 34.905 40.7878 35.251C38.6701 35.9531 36.8518 37.3502 35.6278 39.2154C34.5585 40.8428 33.9874 42.7468 33.9844 44.6939C33.9838 45.1944 34.0237 45.6941 34.1038 46.1881C34.3404 47.8179 34.9884 49.3606 35.9865 50.6705C36.9549 51.9596 38.2219 52.9943 39.6785 53.6856C41.1351 54.377 42.7378 54.7043 44.3488 54.6394C45.9598 54.5746 47.531 54.1195 48.9273 53.3133C50.3237 52.5072 51.5033 51.374 52.365 50.0112C53.2266 48.6484 53.7445 47.0968 53.8741 45.4897C54.0036 43.8826 53.741 42.268 53.1088 40.7848C52.4766 39.3016 51.4936 37.9941 50.2445 36.9747C48.9953 35.9552 47.5173 35.2543 45.9375 34.9322ZM48.2981 43.6879L43.1783 48.8078C43.04 48.947 42.8755 49.0574 42.6942 49.1326C42.513 49.2078 42.3187 49.2464 42.1224 49.2461C41.7265 49.2448 41.3472 49.0873 41.0668 48.8078L38.5863 46.3275C38.3049 46.0475 38.1463 45.6672 38.1454 45.2702C38.1445 44.8732 38.3013 44.4921 38.5813 44.2108C38.8614 43.9294 39.2417 43.7709 39.6387 43.7699C40.0357 43.769 40.4167 43.9258 40.6981 44.2059L42.1224 45.6402L46.1866 41.5762C46.4668 41.2971 46.8463 41.1405 47.2418 41.1409C47.6373 41.1414 48.0165 41.2986 48.2962 41.5783C48.5758 41.858 48.7331 42.2372 48.7335 42.6327C48.7339 43.0282 48.5772 43.4077 48.2981 43.6879Z" fill="black"/>
<path id="Vector_2" d="M30.6574 28.2584C31.7576 28.2584 32.6495 27.3665 32.6495 26.2662C32.6495 25.166 31.7576 24.274 30.6574 24.274C29.5571 24.274 28.6652 25.166 28.6652 26.2662C28.6652 27.3665 29.5571 28.2584 30.6574 28.2584Z" fill="black"/>
<path id="Vector_3" d="M20.6964 28.2584C21.7967 28.2584 22.6886 27.3665 22.6886 26.2662C22.6886 25.166 21.7967 24.274 20.6964 24.274C19.5962 24.274 18.7042 25.166 18.7042 26.2662C18.7042 27.3665 19.5962 28.2584 20.6964 28.2584Z" fill="black"/>
<path id="Vector_4" d="M25.6769 24.274C26.7771 24.274 27.6691 23.3821 27.6691 22.2818C27.6691 21.1816 26.7771 20.2897 25.6769 20.2897C24.5766 20.2897 23.6847 21.1816 23.6847 22.2818C23.6847 23.3821 24.5766 24.274 25.6769 24.274Z" fill="black"/>
<path id="Vector_5" d="M31.0759 46.1881H17.5488C17.0901 46.1882 16.636 46.0977 16.2123 45.9219C15.7887 45.7461 15.4039 45.4884 15.08 45.1636C14.7561 44.8388 14.4995 44.4532 14.3249 44.0291C14.1503 43.6049 14.0611 43.1505 14.0625 42.6918V42.2037H31.2451C31.2873 41.9484 31.3438 41.6957 31.4144 41.4467C31.6086 40.6793 31.8754 39.9322 32.2113 39.2155H14.0625C13.2702 39.2148 12.5105 38.8998 11.9502 38.3395C11.3899 37.7792 11.0749 37.0195 11.0742 36.2272C11.0719 35.8345 11.1483 35.4453 11.2989 35.0826C11.4494 34.7199 11.6712 34.3911 11.9509 34.1155C12.2279 33.8375 12.5569 33.617 12.9193 33.4666C13.2817 33.3162 13.6702 33.2388 14.0625 33.2389H37.9189C38.5382 32.9085 39.1847 32.6319 39.8513 32.4121C41.17 31.9658 42.5532 31.7403 43.9453 31.7447C44.6126 31.743 45.279 31.7963 45.9375 31.9041V14.8012C45.9371 14.1477 45.8079 13.5008 45.5573 12.8973C45.3068 12.2938 44.9397 11.7455 44.4772 11.2839C44.0147 10.8223 43.4657 10.4564 42.8617 10.2071C42.2577 9.9577 41.6105 9.8298 40.957 9.83069H40.459V12.819C40.459 14.0078 39.9867 15.1479 39.1461 15.9885C38.3055 16.8291 37.1654 17.3014 35.9766 17.3014C34.7878 17.3014 33.6476 16.8291 32.807 15.9885C31.9664 15.1479 31.4942 14.0078 31.4942 12.819V9.83069H20.5371V12.819C20.5371 14.0078 20.0649 15.1479 19.2242 15.9885C18.3836 16.8291 17.2435 17.3014 16.0547 17.3014C14.8659 17.3014 13.7258 16.8291 12.8851 15.9885C12.0445 15.1479 11.5723 14.0078 11.5723 12.819V9.83069H11.0643C10.4113 9.82999 9.76467 9.95809 9.16131 10.2076C8.55794 10.4572 8.00973 10.8233 7.54804 11.285C7.08634 11.7467 6.72025 12.2949 6.4707 12.8982C6.22116 13.5016 6.09306 14.1483 6.09375 14.8012V45.6901C6.09287 46.3435 6.22077 46.9907 6.47012 47.5947C6.71948 48.1988 7.08541 48.7477 7.54701 49.2102C8.00861 49.6728 8.55682 50.0398 9.16033 50.2903C9.76383 50.5409 10.4108 50.6701 11.0643 50.6705H32.4603C31.8005 49.4013 31.3561 48.0313 31.1454 46.6164C31.1257 46.477 31.1058 46.3375 31.0759 46.1881ZM25.6769 18.2975C28.8468 18.2983 31.8867 19.5579 34.1281 21.7994C36.3696 24.0408 37.6292 27.0807 37.63 30.2506H13.7238C13.7233 28.6808 14.0322 27.1263 14.6328 25.6758C15.2333 24.2254 16.1138 22.9076 17.2238 21.7975C18.3338 20.6875 19.6517 19.807 21.1021 19.2065C22.5525 18.6059 24.1071 18.2971 25.6769 18.2975Z" fill="black"/>
<path id="Vector_6" d="M35.9724 14.3099C36.3687 14.3099 36.7487 14.1525 37.0289 13.8723C37.3091 13.5921 37.4665 13.2121 37.4666 12.8158V6.83924C37.4666 6.44297 37.3091 6.06293 37.0289 5.78272C36.7487 5.50251 36.3687 5.3451 35.9724 5.3451C35.5761 5.3451 35.1961 5.50251 34.9159 5.78272C34.6357 6.06293 34.4783 6.44297 34.4783 6.83924V12.8158C34.4783 13.2121 34.6357 13.5921 34.9159 13.8723C35.1961 14.1525 35.5761 14.3099 35.9724 14.3099Z" fill="black"/>
<path id="Vector_7" d="M16.0505 14.3099C16.4468 14.3099 16.8268 14.1525 17.107 13.8723C17.3872 13.5921 17.5447 13.2121 17.5447 12.8158V6.83924C17.5447 6.44297 17.3873 6.06293 17.1071 5.78272C16.8268 5.50251 16.4468 5.3451 16.0505 5.3451C15.6543 5.3451 15.2742 5.50251 14.994 5.78272C14.7138 6.06293 14.5564 6.44297 14.5564 6.83924V12.8158C14.5564 13.2121 14.7138 13.5921 14.994 13.8723C15.2742 14.1525 15.6543 14.3099 16.0505 14.3099Z" fill="black"/>
</g>
</g>
</svg>
