<svg width="60" height="60" viewBox="0 0 60 60" fill="none" xmlns="http://www.w3.org/2000/svg">
<g id="Frame">
<g id="Triceps">
<path id="Vector" d="M59.169 28.6539L57.6649 26.0541C57.3607 25.5228 56.9212 25.0815 56.391 24.7753C55.8608 24.4691 55.2589 24.3089 54.6467 24.311H47.2757C46.7524 24.3108 46.2342 24.4138 45.7508 24.6139C45.2673 24.8141 44.828 25.1076 44.458 25.4776C44.0879 25.8476 43.7945 26.2869 43.5943 26.7704C43.3941 27.2539 43.2912 27.7721 43.2913 28.2953V36.2641H33.1509C32.749 37.3336 32.2833 38.378 31.7565 39.3918C30.8403 41.1289 28.2233 39.8009 29.0868 38.0371C29.9305 36.4036 30.6047 34.6881 31.0989 32.9172C31.9573 29.7939 32.231 26.8919 31.9457 23.8827C33.7286 22.5545 35.0099 20.6623 35.5813 18.5138C38.4787 6.26287 21.4571 0.762284 16.6258 12.4576C15.3468 15.9476 16.8279 19.4795 14.8127 22.8168C14.0154 24.4158 13.3814 26.0911 12.9202 27.8172C11.8446 31.8215 11.7648 35.6963 12.5019 38.844C13.0241 40.9387 12.9705 43.1139 12.2229 45.1293C10.8433 50.194 16.1209 55.1903 21.0686 53.4665L44.7257 47.1115C45.9382 46.6664 47.0394 45.9628 47.953 45.0497L58.3821 34.6205C59.1512 33.851 59.6451 32.8493 59.7873 31.7707C59.9296 30.692 59.7123 29.5966 59.169 28.6539ZM20.8992 34.0129C20.5221 35.4444 19.998 36.833 19.3352 38.1567C19.2105 38.4033 19.0196 38.6104 18.7838 38.7546C18.5481 38.8989 18.2768 38.9747 18.0004 38.9735C16.9221 38.9957 16.1563 37.7715 16.6658 36.8119C18.2926 33.6783 19.1432 28.9271 18.369 25.8449C18.2819 25.4594 18.3502 25.0552 18.559 24.7196C18.7677 24.384 19.1003 24.1442 19.4846 24.052C22.7753 23.3801 21.5455 31.6777 20.8992 34.0129Z" fill="black"/>
</g>
</g>
</svg>
